<svg width="179" height="32" viewBox="0 0 179 32" fill="none" xmlns="http://www.w3.org/2000/svg">
<path fill-rule="evenodd" clip-rule="evenodd" d="M44.8972 31.3309H49.2597V5.03813H60.2701V0.610081H33.9329V5.03813H44.8972V31.3309ZM14.9148 10.187L11.5218 17.2202L9.406 21.6039L4.74299 31.3309H0L14.721 0.666665H19.859L34.58 31.3407H29.8321L25.1691 21.6138L23.0533 17.23L19.6603 10.1451V31.3407H14.91V10.187H14.9148ZM94.4575 0.666665L82.543 19.5105L70.6286 0.666665H65.447V31.3309H69.7634V7.53751L79.9086 23.663H84.8309L95.3227 7.36285V31.3309H99.6391V0.666665H94.4575ZM122.045 31.9877C130.894 31.9877 130.894 31.9877 134.563 28.2632C139.27 23.4883 139.27 23.4883 139.27 15.9065C139.27 8.28044 139.27 8.28044 134.522 3.63592C130.938 0.0442801 130.938 0.0442786 122.045 0.0442786C113.153 0.0442786 113.151 0.0442801 109.569 3.63592C104.818 8.29274 104.818 8.29274 104.818 15.9188C104.818 23.5449 104.818 23.5449 109.525 28.2755C113.323 32 113.323 32 122.045 32V31.9877ZM122.045 27.6064C114.835 27.6064 114.835 27.6064 112.719 25.4588C109.137 21.8229 109.137 21.8229 109.137 15.9508C109.137 9.99016 109.137 9.99016 112.773 6.44034C114.758 4.42558 114.758 4.42558 122.055 4.42558C129.352 4.42558 129.35 4.42558 131.335 6.44034C134.97 9.8155 134.97 9.8155 134.97 15.9508C134.97 21.8229 134.97 21.8229 131.386 25.4588C129.27 27.6064 129.27 27.6064 122.062 27.6064H122.045ZM179 9.55227C179 4.25092 178.438 3.5941 172.568 1.62116C168.205 0.13038 167.258 0 161.473 0C154.953 0 154.003 0.13038 150.549 1.62116C145.024 3.89914 144.505 4.60024 144.505 9.68512C144.505 15.9065 145.974 16.6076 161.47 17.8795C173.513 18.7995 174.638 19.0627 174.638 20.7257C174.638 23.7515 174.463 24.1451 172.478 25.1095C167.987 27.2571 167.04 27.476 161.426 27.476C155.469 27.476 154.563 27.2571 150.634 25.1537C148.95 24.2312 148.778 23.8819 148.778 21.2521V19.9828H144.449V21.2521C144.449 26.6421 144.968 27.3432 150.494 29.754C154.812 31.6827 155.719 31.8573 161.417 31.8573C167.59 31.8573 168.54 31.6827 172.512 29.7097C178.382 26.9496 178.937 26.1599 178.937 20.7257C178.937 15.3358 177.425 14.7675 161.453 13.7146C149.883 12.9274 148.804 12.5756 148.804 9.68512C148.804 7.40467 148.976 7.09963 150.574 6.2214C153.896 4.55842 154.805 4.3813 161.409 4.3813C167.279 4.3813 168.23 4.55842 172.461 6.17958C174.49 7.01107 174.662 7.31857 174.662 9.55227V11.3063H178.981L179 9.55227Z" fill="white"/>
</svg>
