<svg width="672" height="470" viewBox="0 0 672 470" fill="none" xmlns="http://www.w3.org/2000/svg">
    <path d="M152.336 33.388C164.398 24.2375 196.269 9.24051 213.296 4.70542C221.937 2.40368 237.37 0.432031 247.596 0.324973C263.751 0.155465 266.439 0.922713 268.128 6.18936C269.629 10.8612 265.967 16.5888 252.154 31.1933C242.301 41.6136 228.323 59.6172 221.098 71.2032L207.959 92.2668L187.929 92.2906C176.912 92.3055 157.294 94.4972 144.332 97.1647C109.56 104.314 102.927 104.129 101.758 95.9871C101.225 92.2817 103.553 84.8323 106.923 79.4318C113.069 69.6003 138.222 44.0938 152.336 33.388Z" fill="url(#paint0_linear_1140_1257)"/>
    <path d="M152.336 33.388C164.398 24.2375 196.269 9.24051 213.296 4.70542C221.937 2.40368 237.37 0.432031 247.596 0.324973C263.751 0.155465 266.439 0.922713 268.128 6.18936C269.629 10.8612 265.967 16.5888 252.154 31.1933C242.301 41.6136 228.323 59.6172 221.098 71.2032L207.959 92.2668L187.929 92.2906C176.912 92.3055 157.294 94.4972 144.332 97.1647C109.56 104.314 102.927 104.129 101.758 95.9871C101.225 92.2817 103.553 84.8323 106.923 79.4318C113.069 69.6003 138.222 44.0938 152.336 33.388Z" fill="url(#paint1_radial_1140_1257)"/>
    <path d="M419.917 30.3339C402.929 13.3206 399.201 6.75438 403.894 2.11224C408.194 -2.14331 444.295 0.414181 463.961 6.36779C495.772 15.9941 518.674 29.4269 542.047 52.1707C584.381 93.3612 584.24 112.602 541.699 99.5289C533.43 96.9863 512.552 93.9916 495.306 92.8705L463.943 90.8305L450.946 69.6092C443.796 57.9369 429.833 40.2635 419.917 30.3339Z" fill="url(#paint2_linear_1140_1257)"/>
    <path d="M419.917 30.3339C402.929 13.3206 399.201 6.75438 403.894 2.11224C408.194 -2.14331 444.295 0.414181 463.961 6.36779C495.772 15.9941 518.674 29.4269 542.047 52.1707C584.381 93.3612 584.24 112.602 541.699 99.5289C533.43 96.9863 512.552 93.9916 495.306 92.8705L463.943 90.8305L450.946 69.6092C443.796 57.9369 429.833 40.2635 419.917 30.3339Z" fill="url(#paint3_radial_1140_1257)"/>
    <path d="M257.569 79.75C257.569 71.6166 294.497 35.8444 314.696 24.413C323.791 19.2653 333.938 15.0722 337.246 15.093C346.804 15.1554 373.767 33.3166 394.823 53.8717C411.294 69.9512 414.066 74.1384 413.305 81.8079L412.412 90.8305L339.122 91.6275C262.617 92.4601 257.569 91.7256 257.569 79.75Z" fill="url(#paint4_linear_1140_1257)"/>
    <path d="M257.569 79.75C257.569 71.6166 294.497 35.8444 314.696 24.413C323.791 19.2653 333.938 15.0722 337.246 15.093C346.804 15.1554 373.767 33.3166 394.823 53.8717C411.294 69.9512 414.066 74.1384 413.305 81.8079L412.412 90.8305L339.122 91.6275C262.617 92.4601 257.569 91.7256 257.569 79.75Z" fill="url(#paint5_radial_1140_1257)"/>
    <path d="M185.893 197.41C217.851 142.807 226.059 132.452 240.717 128.244C245.852 126.772 289.289 125.476 337.246 125.363C415.419 125.181 425.684 125.719 436.465 130.57C443.08 133.547 450.326 138.174 452.566 140.85C456.562 145.626 489.082 199.14 489.082 200.939C489.082 201.442 501.482 222.375 516.635 247.453C556.645 313.656 557.598 304 501.599 399.544C476.857 441.76 454.109 479.082 451.048 482.478C439.066 495.786 431.282 496.758 336.789 496.758C223.521 496.758 230.064 499.027 200.944 449.626C141.731 349.158 130.571 329.489 128.556 322.037C125.047 309.062 129.515 293.25 143.244 270.039C150.273 258.162 169.465 225.477 185.893 197.41Z" fill="url(#paint6_linear_1140_1257)"/>
    <path d="M185.893 197.41C217.851 142.807 226.059 132.452 240.717 128.244C245.852 126.772 289.289 125.476 337.246 125.363C415.419 125.181 425.684 125.719 436.465 130.57C443.08 133.547 450.326 138.174 452.566 140.85C456.562 145.626 489.082 199.14 489.082 200.939C489.082 201.442 501.482 222.375 516.635 247.453C556.645 313.656 557.598 304 501.599 399.544C476.857 441.76 454.109 479.082 451.048 482.478C439.066 495.786 431.282 496.758 336.789 496.758C223.521 496.758 230.064 499.027 200.944 449.626C141.731 349.158 130.571 329.489 128.556 322.037C125.047 309.062 129.515 293.25 143.244 270.039C150.273 258.162 169.465 225.477 185.893 197.41Z" fill="url(#paint7_radial_1140_1257)"/>
    <path d="M78.4259 160.983C85.3232 153.444 117.528 138.049 137.519 132.735C164.765 125.49 179.396 127.575 179.396 138.709C179.396 140.669 167.116 163.487 152.107 189.413C107.431 266.578 106.478 267.791 95.2843 261.864C80.5276 254.055 67.0517 173.414 78.4259 160.983Z" fill="url(#paint8_linear_1140_1257)"/>
    <path d="M78.4259 160.983C85.3232 153.444 117.528 138.049 137.519 132.735C164.765 125.49 179.396 127.575 179.396 138.709C179.396 140.669 167.116 163.487 152.107 189.413C107.431 266.578 106.478 267.791 95.2843 261.864C80.5276 254.055 67.0517 173.414 78.4259 160.983Z" fill="url(#paint9_radial_1140_1257)"/>
    <path d="M494.419 142.629C493.583 140.309 494.118 136.071 495.607 133.208C497.371 129.814 501.83 128.003 508.415 128.003C527.709 128.003 575.037 145.463 592.4 158.985C597.406 162.886 597.857 166.749 596.657 195.488C594.532 246.385 579.715 275.719 564.113 259.907C558.921 254.644 497.579 151.425 494.419 142.629Z" fill="url(#paint10_linear_1140_1257)"/>
    <path d="M494.419 142.629C493.583 140.309 494.118 136.071 495.607 133.208C497.371 129.814 501.83 128.003 508.415 128.003C527.709 128.003 575.037 145.463 592.4 158.985C597.406 162.886 597.857 166.749 596.657 195.488C594.532 246.385 579.715 275.719 564.113 259.907C558.921 254.644 497.579 151.425 494.419 142.629Z" fill="url(#paint11_radial_1140_1257)"/>
    <path d="M1.24185 288.59C4.11321 266.108 15.6318 231.79 23.9452 220.935C25.5117 218.892 29.1678 217.218 32.0692 217.218C39.3032 217.218 42.6105 222.155 46.8349 239.263C50.1452 252.672 70.9303 297.473 77.4698 305.294C79.2738 307.45 75.4463 317.873 66.5526 335.032C59.0179 349.562 50.4459 370.064 47.5024 380.591C38.8883 411.403 27.7516 412.756 15.0214 384.532C2.84743 357.544 -2.66682 319.158 1.24185 288.59Z" fill="url(#paint12_linear_1140_1257)"/>
    <path d="M1.24185 288.59C4.11321 266.108 15.6318 231.79 23.9452 220.935C25.5117 218.892 29.1678 217.218 32.0692 217.218C39.3032 217.218 42.6105 222.155 46.8349 239.263C50.1452 252.672 70.9303 297.473 77.4698 305.294C79.2738 307.45 75.4463 317.873 66.5526 335.032C59.0179 349.562 50.4459 370.064 47.5024 380.591C38.8883 411.403 27.7516 412.756 15.0214 384.532C2.84743 357.544 -2.66682 319.158 1.24185 288.59Z" fill="url(#paint13_radial_1140_1257)"/>
    <path d="M627.542 235.061C629.445 227.701 631.625 220.674 632.38 219.449C633.137 218.223 636.174 217.218 639.127 217.218C654.515 217.218 669.695 256.737 671.683 301.972C673.267 338.083 669.082 360.462 655.381 389.126C648.85 402.785 646.803 404.784 640.143 403.995C633.309 403.184 631.553 400.225 624.4 377.475C619.971 363.391 611.231 342.818 604.974 331.755L593.603 311.64L608.84 280.043C617.22 262.661 625.636 242.421 627.542 235.061Z" fill="url(#paint14_linear_1140_1257)"/>
    <path d="M627.542 235.061C629.445 227.701 631.625 220.674 632.38 219.449C633.137 218.223 636.174 217.218 639.127 217.218C654.515 217.218 669.695 256.737 671.683 301.972C673.267 338.083 669.082 360.462 655.381 389.126C648.85 402.785 646.803 404.784 640.143 403.995C633.309 403.184 631.553 400.225 624.4 377.475C619.971 363.391 611.231 342.818 604.974 331.755L593.603 311.64L608.84 280.043C617.22 262.661 625.636 242.421 627.542 235.061Z" fill="url(#paint15_radial_1140_1257)"/>
    <path d="M74.7067 441.742C73.5581 420.393 78.1433 394 86.7393 372.443C92.3197 358.457 93.9193 356.774 100.886 357.574C107.657 358.35 113.631 366.834 144.269 419.186C184.104 487.254 185.872 493.784 164.462 493.784C147.504 493.784 107.233 480.453 90.2211 469.206C75.8011 459.674 75.6568 459.422 74.7067 441.742Z" fill="url(#paint16_linear_1140_1257)"/>
    <path d="M74.7067 441.742C73.5581 420.393 78.1433 394 86.7393 372.443C92.3197 358.457 93.9193 356.774 100.886 357.574C107.657 358.35 113.631 366.834 144.269 419.186C184.104 487.254 185.872 493.784 164.462 493.784C147.504 493.784 107.233 480.453 90.2211 469.206C75.8011 459.674 75.6568 459.422 74.7067 441.742Z" fill="url(#paint17_radial_1140_1257)"/>
    <path d="M495.579 488.732C491.788 481.725 490.847 483.664 533.355 411.112C562.739 360.961 565.854 356.759 573.013 357.583C579.402 358.317 582.09 361.648 588.131 376.318C593.97 390.506 595.728 400.965 596.715 427.379L597.956 460.593L581.853 469.759C545.412 490.501 501.734 500.107 495.579 488.732Z" fill="url(#paint18_linear_1140_1257)"/>
    <path d="M495.579 488.732C491.788 481.725 490.847 483.664 533.355 411.112C562.739 360.961 565.854 356.759 573.013 357.583C579.402 358.317 582.09 361.648 588.131 376.318C593.97 390.506 595.728 400.965 596.715 427.379L597.956 460.593L581.853 469.759C545.412 490.501 501.734 500.107 495.579 488.732Z" fill="url(#paint19_radial_1140_1257)"/>
    <path d="M117.51 556.707C103.375 539.004 99.3523 529.661 102.437 521.709C104.464 516.484 105.967 516.596 141.812 524.644C153.388 527.24 173.097 529.39 185.607 529.42L208.356 529.47L215.467 542.109C225.668 560.24 242.957 582.645 257.244 596.242C279.731 617.644 271.276 627.095 234.565 621.591C189.624 614.852 143.538 589.307 117.51 556.707Z" fill="url(#paint20_linear_1140_1257)"/>
    <path d="M117.51 556.707C103.375 539.004 99.3523 529.661 102.437 521.709C104.464 516.484 105.967 516.596 141.812 524.644C153.388 527.24 173.097 529.39 185.607 529.42L208.356 529.47L215.467 542.109C225.668 560.24 242.957 582.645 257.244 596.242C279.731 617.644 271.276 627.095 234.565 621.591C189.624 614.852 143.538 589.307 117.51 556.707Z" fill="url(#paint21_radial_1140_1257)"/>
    <path d="M497.224 528.569C515.072 527.606 535.76 524.801 543.202 522.339C559.528 516.938 567.093 517.405 571.32 524.073C576.125 531.656 569.14 542.62 543.016 568.49C513.713 597.505 482.401 613.704 441.88 620.808C419.207 624.784 413.428 624.963 409.583 621.805C402.728 616.178 403.852 606.968 412.184 600.488C421.709 593.077 446.763 561.394 456.836 544.024L464.776 530.324L497.224 528.569Z" fill="url(#paint22_linear_1140_1257)"/>
    <path d="M497.224 528.569C515.072 527.606 535.76 524.801 543.202 522.339C559.528 516.938 567.093 517.405 571.32 524.073C576.125 531.656 569.14 542.62 543.016 568.49C513.713 597.505 482.401 613.704 441.88 620.808C419.207 624.784 413.428 624.963 409.583 621.805C402.728 616.178 403.852 606.968 412.184 600.488C421.709 593.077 446.763 561.394 456.836 544.024L464.776 530.324L497.224 528.569Z" fill="url(#paint23_radial_1140_1257)"/>
    <path d="M277.864 567.972C257.876 548.232 254.018 540.12 261.228 532.988C263.949 530.297 283.802 529.571 338.65 530.163L412.412 530.957L413.317 540.14C414.081 547.86 411.51 552.05 397.18 566.45C377.811 585.916 346.906 606.805 337.531 606.763C326.551 606.712 298.865 588.715 277.864 567.972Z" fill="url(#paint24_linear_1140_1257)"/>
    <path d="M277.864 567.972C257.876 548.232 254.018 540.12 261.228 532.988C263.949 530.297 283.802 529.571 338.65 530.163L412.412 530.957L413.317 540.14C414.081 547.86 411.51 552.05 397.18 566.45C377.811 585.916 346.906 606.805 337.531 606.763C326.551 606.712 298.865 588.715 277.864 567.972Z" fill="url(#paint25_radial_1140_1257)"/>
    <defs>
        <linearGradient id="paint0_linear_1140_1257" x1="336" y1="0" x2="336" y2="624" gradientUnits="userSpaceOnUse">
            <stop stop-color="#18B4CA" stop-opacity="0.24"/>
            <stop offset="1" stop-color="#18B4CA" stop-opacity="0"/>
        </linearGradient>
        <radialGradient id="paint1_radial_1140_1257" cx="0" cy="0" r="1" gradientUnits="userSpaceOnUse" gradientTransform="translate(4.52687e-05 -137.596) rotate(63.9709) scale(1565.41 3059.93)">
            <stop stop-color="#CEF3FC"/>
            <stop offset="0.28125" stop-color="#9DEEF9"/>
            <stop offset="0.640625" stop-color="#00CFDC"/>
            <stop offset="1" stop-color="#00CFDC"/>
        </radialGradient>
        <linearGradient id="paint2_linear_1140_1257" x1="336" y1="0" x2="336" y2="624" gradientUnits="userSpaceOnUse">
            <stop stop-color="#18B4CA" stop-opacity="0.24"/>
            <stop offset="1" stop-color="#18B4CA" stop-opacity="0"/>
        </linearGradient>
        <radialGradient id="paint3_radial_1140_1257" cx="0" cy="0" r="1" gradientUnits="userSpaceOnUse" gradientTransform="translate(4.52687e-05 -137.596) rotate(63.9709) scale(1565.41 3059.93)">
            <stop stop-color="#CEF3FC"/>
            <stop offset="0.28125" stop-color="#9DEEF9"/>
            <stop offset="0.640625" stop-color="#00CFDC"/>
            <stop offset="1" stop-color="#00CFDC"/>
        </radialGradient>
        <linearGradient id="paint4_linear_1140_1257" x1="336" y1="0" x2="336" y2="624" gradientUnits="userSpaceOnUse">
            <stop stop-color="#18B4CA" stop-opacity="0.24"/>
            <stop offset="1" stop-color="#18B4CA" stop-opacity="0"/>
        </linearGradient>
        <radialGradient id="paint5_radial_1140_1257" cx="0" cy="0" r="1" gradientUnits="userSpaceOnUse" gradientTransform="translate(4.52687e-05 -137.596) rotate(63.9709) scale(1565.41 3059.93)">
            <stop stop-color="#CEF3FC"/>
            <stop offset="0.28125" stop-color="#9DEEF9"/>
            <stop offset="0.640625" stop-color="#00CFDC"/>
            <stop offset="1" stop-color="#00CFDC"/>
        </radialGradient>
        <linearGradient id="paint6_linear_1140_1257" x1="336" y1="0" x2="336" y2="624" gradientUnits="userSpaceOnUse">
            <stop stop-color="#18B4CA" stop-opacity="0.24"/>
            <stop offset="1" stop-color="#18B4CA" stop-opacity="0"/>
        </linearGradient>
        <radialGradient id="paint7_radial_1140_1257" cx="0" cy="0" r="1" gradientUnits="userSpaceOnUse" gradientTransform="translate(4.52687e-05 -137.596) rotate(63.9709) scale(1565.41 3059.93)">
            <stop stop-color="#CEF3FC"/>
            <stop offset="0.28125" stop-color="#9DEEF9"/>
            <stop offset="0.640625" stop-color="#00CFDC"/>
            <stop offset="1" stop-color="#00CFDC"/>
        </radialGradient>
        <linearGradient id="paint8_linear_1140_1257" x1="336" y1="0" x2="336" y2="624" gradientUnits="userSpaceOnUse">
            <stop stop-color="#18B4CA" stop-opacity="0.24"/>
            <stop offset="1" stop-color="#18B4CA" stop-opacity="0"/>
        </linearGradient>
        <radialGradient id="paint9_radial_1140_1257" cx="0" cy="0" r="1" gradientUnits="userSpaceOnUse" gradientTransform="translate(4.52687e-05 -137.596) rotate(63.9709) scale(1565.41 3059.93)">
            <stop stop-color="#CEF3FC"/>
            <stop offset="0.28125" stop-color="#9DEEF9"/>
            <stop offset="0.640625" stop-color="#00CFDC"/>
            <stop offset="1" stop-color="#00CFDC"/>
        </radialGradient>
        <linearGradient id="paint10_linear_1140_1257" x1="336" y1="0" x2="336" y2="624" gradientUnits="userSpaceOnUse">
            <stop stop-color="#18B4CA" stop-opacity="0.24"/>
            <stop offset="1" stop-color="#18B4CA" stop-opacity="0"/>
        </linearGradient>
        <radialGradient id="paint11_radial_1140_1257" cx="0" cy="0" r="1" gradientUnits="userSpaceOnUse" gradientTransform="translate(4.52687e-05 -137.596) rotate(63.9709) scale(1565.41 3059.93)">
            <stop stop-color="#CEF3FC"/>
            <stop offset="0.28125" stop-color="#9DEEF9"/>
            <stop offset="0.640625" stop-color="#00CFDC"/>
            <stop offset="1" stop-color="#00CFDC"/>
        </radialGradient>
        <linearGradient id="paint12_linear_1140_1257" x1="336" y1="0" x2="336" y2="624" gradientUnits="userSpaceOnUse">
            <stop stop-color="#18B4CA" stop-opacity="0.24"/>
            <stop offset="1" stop-color="#18B4CA" stop-opacity="0"/>
        </linearGradient>
        <radialGradient id="paint13_radial_1140_1257" cx="0" cy="0" r="1" gradientUnits="userSpaceOnUse" gradientTransform="translate(4.52687e-05 -137.596) rotate(63.9709) scale(1565.41 3059.93)">
            <stop stop-color="#CEF3FC"/>
            <stop offset="0.28125" stop-color="#9DEEF9"/>
            <stop offset="0.640625" stop-color="#00CFDC"/>
            <stop offset="1" stop-color="#00CFDC"/>
        </radialGradient>
        <linearGradient id="paint14_linear_1140_1257" x1="336" y1="0" x2="336" y2="624" gradientUnits="userSpaceOnUse">
            <stop stop-color="#18B4CA" stop-opacity="0.24"/>
            <stop offset="1" stop-color="#18B4CA" stop-opacity="0"/>
        </linearGradient>
        <radialGradient id="paint15_radial_1140_1257" cx="0" cy="0" r="1" gradientUnits="userSpaceOnUse" gradientTransform="translate(4.52687e-05 -137.596) rotate(63.9709) scale(1565.41 3059.93)">
            <stop stop-color="#CEF3FC"/>
            <stop offset="0.28125" stop-color="#9DEEF9"/>
            <stop offset="0.640625" stop-color="#00CFDC"/>
            <stop offset="1" stop-color="#00CFDC"/>
        </radialGradient>
        <linearGradient id="paint16_linear_1140_1257" x1="336" y1="0" x2="336" y2="624" gradientUnits="userSpaceOnUse">
            <stop stop-color="#18B4CA" stop-opacity="0.24"/>
            <stop offset="1" stop-color="#18B4CA" stop-opacity="0"/>
        </linearGradient>
        <radialGradient id="paint17_radial_1140_1257" cx="0" cy="0" r="1" gradientUnits="userSpaceOnUse" gradientTransform="translate(4.52687e-05 -137.596) rotate(63.9709) scale(1565.41 3059.93)">
            <stop stop-color="#CEF3FC"/>
            <stop offset="0.28125" stop-color="#9DEEF9"/>
            <stop offset="0.640625" stop-color="#00CFDC"/>
            <stop offset="1" stop-color="#00CFDC"/>
        </radialGradient>
        <linearGradient id="paint18_linear_1140_1257" x1="336" y1="0" x2="336" y2="624" gradientUnits="userSpaceOnUse">
            <stop stop-color="#18B4CA" stop-opacity="0.24"/>
            <stop offset="1" stop-color="#18B4CA" stop-opacity="0"/>
        </linearGradient>
        <radialGradient id="paint19_radial_1140_1257" cx="0" cy="0" r="1" gradientUnits="userSpaceOnUse" gradientTransform="translate(4.52687e-05 -137.596) rotate(63.9709) scale(1565.41 3059.93)">
            <stop stop-color="#CEF3FC"/>
            <stop offset="0.28125" stop-color="#9DEEF9"/>
            <stop offset="0.640625" stop-color="#00CFDC"/>
            <stop offset="1" stop-color="#00CFDC"/>
        </radialGradient>
        <linearGradient id="paint20_linear_1140_1257" x1="336" y1="0" x2="336" y2="624" gradientUnits="userSpaceOnUse">
            <stop stop-color="#18B4CA" stop-opacity="0.24"/>
            <stop offset="1" stop-color="#18B4CA" stop-opacity="0"/>
        </linearGradient>
        <radialGradient id="paint21_radial_1140_1257" cx="0" cy="0" r="1" gradientUnits="userSpaceOnUse" gradientTransform="translate(4.52687e-05 -137.596) rotate(63.9709) scale(1565.41 3059.93)">
            <stop stop-color="#CEF3FC"/>
            <stop offset="0.28125" stop-color="#9DEEF9"/>
            <stop offset="0.640625" stop-color="#00CFDC"/>
            <stop offset="1" stop-color="#00CFDC"/>
        </radialGradient>
        <linearGradient id="paint22_linear_1140_1257" x1="336" y1="0" x2="336" y2="624" gradientUnits="userSpaceOnUse">
            <stop stop-color="#18B4CA" stop-opacity="0.24"/>
            <stop offset="1" stop-color="#18B4CA" stop-opacity="0"/>
        </linearGradient>
        <radialGradient id="paint23_radial_1140_1257" cx="0" cy="0" r="1" gradientUnits="userSpaceOnUse" gradientTransform="translate(4.52687e-05 -137.596) rotate(63.9709) scale(1565.41 3059.93)">
            <stop stop-color="#CEF3FC"/>
            <stop offset="0.28125" stop-color="#9DEEF9"/>
            <stop offset="0.640625" stop-color="#00CFDC"/>
            <stop offset="1" stop-color="#00CFDC"/>
        </radialGradient>
        <linearGradient id="paint24_linear_1140_1257" x1="336" y1="0" x2="336" y2="624" gradientUnits="userSpaceOnUse">
            <stop stop-color="#18B4CA" stop-opacity="0.24"/>
            <stop offset="1" stop-color="#18B4CA" stop-opacity="0"/>
        </linearGradient>
        <radialGradient id="paint25_radial_1140_1257" cx="0" cy="0" r="1" gradientUnits="userSpaceOnUse" gradientTransform="translate(4.52687e-05 -137.596) rotate(63.9709) scale(1565.41 3059.93)">
            <stop stop-color="#CEF3FC"/>
            <stop offset="0.28125" stop-color="#9DEEF9"/>
            <stop offset="0.640625" stop-color="#00CFDC"/>
            <stop offset="1" stop-color="#00CFDC"/>
        </radialGradient>
    </defs>
</svg>
